<svg width="10" height="14" viewBox="0 0 10 14" fill="none" xmlns="http://www.w3.org/2000/svg">
<path d="M1.20517 14C0.873722 14 0.59 13.8729 0.354 13.6188C0.118 13.3646 0 13.0591 0 12.7021V5.96454C0 5.6076 0.118 5.30205 0.354 5.0479C0.59 4.79374 0.873722 4.66667 1.20517 4.66667H2V3.23077C2 2.33429 2.29189 1.57171 2.87567 0.943025C3.45944 0.314341 4.16756 0 5 0C5.83244 0 6.54056 0.314341 7.12433 0.943025C7.70811 1.57171 8 2.33429 8 3.23077V4.66667H8.79483C9.12628 4.66667 9.41 4.79374 9.646 5.0479C9.882 5.30205 10 5.6076 10 5.96454V12.7021C10 13.0591 9.882 13.3646 9.646 13.6188C9.41 13.8729 9.12628 14 8.79483 14H1.20517ZM5 10.5897C5.32389 10.5897 5.59933 10.4676 5.82633 10.2232C6.05322 9.97877 6.16667 9.68214 6.16667 9.33333C6.16667 8.98453 6.05322 8.6879 5.82633 8.44344C5.59933 8.19909 5.32389 8.07692 5 8.07692C4.67611 8.07692 4.40067 8.19909 4.17367 8.44344C3.94678 8.6879 3.83333 8.98453 3.83333 9.33333C3.83333 9.68214 3.94678 9.97877 4.17367 10.2232C4.40067 10.4676 4.67611 10.5897 5 10.5897ZM3 4.66667H7V3.23077C7 2.63248 6.80556 2.12393 6.41667 1.70513C6.02778 1.28632 5.55556 1.07692 5 1.07692C4.44444 1.07692 3.97222 1.28632 3.58333 1.70513C3.19444 2.12393 3 2.63248 3 3.23077V4.66667Z" fill="#556171"/>
</svg>
